<?xml version="1.0" encoding="UTF-8" standalone="no"?>
<!DOCTYPE svg PUBLIC "-//W3C//DTD SVG 1.1//EN" "http://www.w3.org/Graphics/SVG/1.1/DTD/svg11.dtd">
<svg width="100%" height="100%" viewBox="0 0 2363 2363" version="1.1" xmlns="http://www.w3.org/2000/svg" xmlns:xlink="http://www.w3.org/1999/xlink" xml:space="preserve" xmlns:serif="http://www.serif.com/" style="fill-rule:evenodd;clip-rule:evenodd;stroke-linejoin:round;stroke-miterlimit:2;">
    <g transform="matrix(-0.493845,1.67101,-1.67101,-0.493845,6142.69,-108.985)">
        <path d="M1472.97,1900.59C1690.73,1869.58 2030.34,2046.1 2125.57,2217.03C2220.81,2387.97 2196.04,2767.32 2044.4,2926.19C1892.75,3085.06 1419.92,3257.45 1215.7,3170.26C1011.47,3083.07 776.165,2614.67 819.044,2403.05C861.923,2191.44 1255.22,1931.59 1472.97,1900.59ZM1422.27,2586.86C1425.3,2615.61 1424,2661.06 1413.17,2710.18C1392.57,2803.61 1335.73,2910.63 1199.25,2941.66C1189.4,2878.07 1185.3,2874.63 1162.3,2814.06C1156.4,2798.5 1138.98,2790.67 1123.43,2796.58C1107.87,2802.48 1100.04,2819.9 1105.95,2835.45C1130.07,2899 1131.62,2894.15 1144.18,2981.14C1146.54,2997.52 1161.68,3008.93 1178.09,3006.69C1367.93,2980.78 1445.55,2843.3 1472.04,2723.15C1485.25,2663.27 1485.26,2607.8 1480.77,2572.64C1587.78,2546.11 1755.62,2502.83 1858.31,2480.52C1879.2,2544.63 1912.44,2619.97 1941.97,2664.64C1955.05,2684.43 1968.11,2698.76 1979.09,2706.17L1992.72,2713.06L2004.49,2715.41L2017.34,2713.8L2027.75,2708.38L2033.12,2703.47L2038.36,2696.26C2040.74,2692.18 2043.02,2686.75 2044.71,2679.93C2053.83,2643.31 2046.3,2540.27 1997.4,2446.41C1986.71,2425.89 1973.47,2416.15 1961.69,2411.05C1944.07,2403.42 1928.2,2406.58 1922.48,2407.28C1916.6,2407.99 1909.43,2409.11 1901.14,2410.57C1859.41,2241.89 1879.16,2188.21 1881.98,2158.85C1883.57,2142.29 1871.41,2127.56 1854.85,2125.97C1838.29,2124.38 1823.56,2136.53 1821.97,2153.09C1818.94,2184.64 1797.65,2242.23 1842.02,2422.6C1735.9,2445.94 1568.47,2489.01 1463.62,2514.88C1416.52,2404.41 1340.65,2359.3 1292.91,2327.26C1277.53,2316.94 1226.55,2290.62 1170.74,2285.22C1110.05,2279.33 1044.43,2296.44 1006.98,2375.3C980.018,2432.08 990.347,2504.02 1049.78,2554.49C1085.44,2584.76 1139.98,2607.54 1216.71,2611.2C1289,2614.64 1381.4,2595.77 1395.48,2592.87C1402.37,2591.45 1411.42,2589.41 1422.27,2586.86ZM1917.87,2468.82C1922.26,2468.12 1926.23,2467.55 1929.73,2467.12C1930.9,2466.98 1934.14,2464.81 1937.73,2466.37C1940.08,2467.39 1941.8,2470.16 1943.94,2474.26C1971.88,2527.9 1985.03,2584.83 1987.92,2624.64C1962.98,2584.69 1936.01,2523.06 1917.87,2468.82ZM1404,2529.25C1395.83,2531.13 1388.86,2532.68 1383.3,2533.83C1370.4,2536.49 1285.8,2554.14 1219.58,2550.98C1080.05,2544.34 1032.02,2463.09 1061.43,2401.16C1085.01,2351.52 1126.72,2341.51 1164.92,2345.22C1207.99,2349.39 1247.45,2369.36 1259.32,2377.32C1299.24,2404.1 1362.88,2440.62 1404,2529.25Z"/>
    </g>
</svg>
